<svg width="45" height="45" viewBox="0 0 45 45" fill="none" xmlns="http://www.w3.org/2000/svg">
<path d="M33.75 0H18.2812C16.728 0 15.4687 1.2593 15.4687 2.8125H30.9375V14.0625H42.1875V36.5625H32.3438V39.375H42.1875C43.7407 39.375 45 38.1157 45 36.5625V11.2507L33.75 0ZM33.75 11.25V3.97687L41.0217 11.25H33.75ZM2.8125 5.625C1.2593 5.625 0 6.8843 0 8.4375V42.1875C0 43.7407 1.2593 45 2.8125 45H26.7187C28.272 45 29.5312 43.7407 29.5312 42.1875V16.8757L18.2812 5.625H2.8125ZM26.7187 42.1875H2.8125V8.4375H15.4687V19.6875H26.7187V42.1875ZM18.2812 16.875V9.60188L25.553 16.875H18.2812Z" fill="#0088C3"/>
</svg>
