<svg width="55" height="29" viewBox="0 0 55 29" fill="none" xmlns="http://www.w3.org/2000/svg">
<path d="M9.13427 15.1836C8.1252 15.1601 7.12435 15.1283 6.11293 14.9954C4.19004 14.7437 2.26716 15.2365 0.33604 15.1812C-0.00972708 15.1706 -0.0508898 15.34 0.0443725 15.6293C0.244306 16.2385 0.757075 15.9339 1.13695 16.0186C1.69441 16.9689 0.46776 16.7231 0.742962 17.1982C0.946423 18.3825 3.18685 17.1641 2.58235 18.4895C2.52825 18.5824 2.26951 18.6506 2.48826 18.7847C3.55731 19.5209 3.49969 18.7565 3.47734 17.8827C3.4644 17.1323 4.35352 18.0955 4.23356 16.6901C4.26061 16.1903 4.49818 16.0186 4.94861 16.1609C5.32378 16.2785 5.16148 16.609 5.21911 16.8524C5.08151 18.1438 6.08 16.8513 5.97415 18.2755C5.87301 19.1787 6.36696 19.2681 7.00087 18.7553C7.15611 18.6201 6.93265 18.5824 6.88326 18.5013C6.21525 17.1523 8.57681 18.4107 8.72147 17.1641C8.92022 16.7489 7.82177 16.9689 8.31102 16.0209C8.56505 16.0162 8.82261 16.0374 9.07076 15.9986C9.49533 15.9657 9.6588 15.1048 9.13545 15.1836H9.13427Z" fill="#0088C3"/>
<path d="M54.534 13.3266C53.5132 12.1129 52.4182 10.9592 51.4456 9.70783C50.6835 8.72816 49.7532 8.38827 48.5525 8.40121C45.4182 8.43296 42.2828 8.3965 39.1486 8.39298C33.8586 8.38592 28.5686 8.37416 23.2786 8.39062C22.7529 8.3918 22.473 8.2295 22.2283 7.77201C21.7003 6.78646 21.0358 5.8844 20.2772 5.05997C17.5393 2.0798 14.3051 0.0792896 10.1218 0.00284464C7.46388 -0.0453745 4.95531 0.51679 2.65372 1.89045C2.36676 1.92808 2.18329 2.15389 1.94337 2.2762C1.5047 2.49966 1.48235 2.79132 1.76343 3.16649C2.06686 3.57224 2.36676 3.98151 2.64079 4.40725C2.87012 4.7636 3.11357 4.80006 3.46287 4.57308C5.53158 3.22882 7.80847 2.59845 10.2724 2.62902C10.3817 2.65843 10.4899 2.68195 10.5981 2.68312C11.0627 2.75957 11.5284 2.83131 11.9894 2.9254C13.4819 3.22882 14.7814 3.96622 16.0551 4.75655C17.0477 5.56569 17.9757 6.44304 18.7989 7.42624C19.4657 8.3671 20.0361 9.36677 20.5818 10.3805C20.8135 10.8098 21.1534 10.9803 21.6321 10.9827C22.493 10.9874 23.3538 11.0403 24.2147 11.0439C28.1887 11.0615 32.1638 11.0733 36.1378 11.0803C40.2106 11.0874 44.2821 11.0862 48.3549 11.0897C48.7065 11.0897 49.0547 11.065 49.324 11.3826C50.0696 12.2634 50.8246 13.1373 51.5879 14.004C51.8243 14.2734 51.8337 14.4945 51.5962 14.7697C51.2245 15.1978 50.8893 15.6564 50.5236 16.0916C49.9638 16.7572 49.9579 16.7549 49.3028 16.141C48.9159 15.7799 48.5195 15.433 48.075 15.1437C47.4987 14.7685 46.9389 14.7567 46.3944 15.1895C45.8593 15.6153 45.3159 16.0351 44.8067 16.4914C44.4985 16.7666 44.2939 16.7419 44.0316 16.4397C43.7 16.0551 43.3401 15.6917 42.9685 15.3459C42.2687 14.6944 41.7442 14.6626 40.9891 15.2507C40.434 15.6835 39.9071 16.1539 39.3838 16.6243C39.1356 16.8478 38.938 16.8713 38.6758 16.6432C38.3676 16.375 38.0254 16.1445 37.6985 15.8987C37.4762 15.7093 37.2633 15.5071 37.0293 15.3342C36.1449 14.6815 35.7403 14.6615 34.8712 15.3259C34.1726 15.8611 33.5093 16.4456 32.8507 17.0289C32.539 17.3053 32.2179 17.4288 31.7934 17.4217C28.5815 17.3676 25.3685 17.357 22.1566 17.2818C21.2934 17.2618 20.7194 17.5946 20.3443 18.3155C19.7386 19.4775 19.1176 20.6277 18.2803 21.645C18.0427 21.8767 17.8086 22.1143 17.5652 22.3401C16.0539 23.7384 14.311 24.7299 12.2928 25.1544C10.1888 25.5966 8.08367 25.5613 6.04318 24.7992C5.53276 24.6087 5.30107 24.7122 5.14583 25.2191C5.01411 25.6472 4.83182 26.0659 4.62483 26.4622C4.38373 26.9221 4.48135 27.1267 4.98588 27.3031C7.6744 28.2404 10.4088 28.3192 13.1479 27.6783C17.2206 26.7257 20.1455 24.2277 22.2095 20.6606C22.4765 20.1996 22.7682 20.0044 23.315 20.0079C26.3517 20.0256 29.3883 19.9903 32.4249 20.0032C33.2153 20.0067 33.8786 19.8115 34.4407 19.2388C34.7689 18.9047 35.164 18.639 35.5133 18.3249C35.8308 18.0392 36.1061 18.0392 36.4389 18.3191C36.9928 18.7848 37.5644 19.2329 38.1524 19.6551C38.8498 20.1561 39.3391 20.1502 40.0294 19.6339C40.4834 19.2952 40.9256 18.9318 41.3267 18.5319C41.7171 18.1427 42.01 18.1897 42.3404 18.586C42.578 18.8706 42.8473 19.1317 43.1131 19.3905C43.9411 20.1973 44.5185 20.2267 45.4265 19.4998C45.9157 19.1082 46.4038 18.7142 46.8672 18.292C47.1435 18.0403 47.354 18.0592 47.6257 18.292C48.1902 18.7766 48.763 19.254 49.3546 19.7045C49.9696 20.1726 50.6988 20.1385 51.1551 19.5986C52.343 18.192 53.5273 16.7819 54.6034 15.2871C55.1503 14.5286 55.135 14.0405 54.534 13.3254V13.3266ZM48.6466 11.0192C48.93 11.0297 49.1946 11.0803 49.3863 11.3167C49.3934 11.3249 49.4004 11.3332 49.4075 11.3426C49.1758 11.1932 48.9253 11.0874 48.6466 11.0192Z" fill="#0088C3"/>
<path d="M9.03771 13.2067C8.30972 13.1597 7.60642 13.2338 8.07215 12.2435C8.29913 12.2141 8.69194 12.4058 8.70723 12.0977C8.72135 11.8072 8.46143 11.4897 8.06862 11.4473C7.63936 11.4367 7.21009 11.4391 6.78082 11.4332L6.78552 11.4285C6.69967 11.198 6.70437 10.9687 6.79376 10.7393C6.88431 10.7123 7.05367 10.6676 7.05249 10.6605C6.97017 10.2889 6.60793 10.3089 6.35155 10.1877C5.6706 9.93135 6.05518 11.2897 5.94698 11.6614C4.61213 11.6778 5.76939 13.0668 4.78031 13.1079C3.77594 13.2032 4.6627 11.9354 4.01704 11.8178C2.67278 11.726 4.40867 9.22923 2.40699 10.5794C2.6669 10.7546 2.86919 10.9628 2.75746 11.2603C2.63515 11.5861 2.32231 11.4214 2.0918 11.4508C1.88011 11.4779 1.66253 11.4779 1.44849 11.4708C1.14388 11.3815 0.460582 12.1882 0.951006 12.22C1.7872 12.1788 1.50376 12.7422 1.47906 13.1691C1.02039 13.2538 0.146569 12.9456 0.0771809 13.6125C0.0524832 13.8206 0.18538 13.9159 0.358263 13.8912C2.24351 13.7618 4.04997 14.4781 5.94933 14.2534C6.71613 14.2534 6.53972 13.7748 7.73579 13.9065C8.08626 13.823 9.35055 14.1147 9.36936 13.6866C9.3823 13.4561 9.29174 13.2573 9.03653 13.2056L9.03771 13.2067ZM8.2321 13.2561C8.12508 13.2479 8.02746 13.2173 7.96748 13.1256C8.04157 13.1797 8.12978 13.2244 8.2321 13.2561Z" fill="#0088C3"/>
</svg>
